<svg width="253" height="75" viewBox="0 0 253 75" fill="none" xmlns="http://www.w3.org/2000/svg">
<rect width="74.6164" height="74.6164" rx="18.2169" fill="#00CF63"/>
<ellipse cx="18.8969" cy="37.3088" rx="7.36453" ry="5.83025" fill="#FFFEFE"/>
<path fill-rule="evenodd" clip-rule="evenodd" d="M34.864 10.9121C34.5448 10.9674 33.5001 11.1277 32.5425 11.2685C25.0203 12.3739 17.5803 17.6426 14.0992 24.3293C13.1853 26.0848 13.1135 26.6011 13.6157 27.8041C14.0756 28.9054 15.2419 29.598 16.6369 29.598C17.6152 29.598 17.8346 29.4972 18.5828 28.704C19.0464 28.2123 19.7916 27.2014 20.2385 26.4575C22.628 22.4801 27.0502 19.2729 31.9621 17.9549C34.457 17.2853 38.6455 17.2254 41.1889 17.8225C47.1617 19.2248 51.9718 22.9875 54.6095 28.3202C55.9716 31.0743 56.6685 33.501 56.1852 33.8077C56.0138 33.9165 46.3793 34.0068 34.7753 34.0089C13.9479 34.0124 13.6672 34.0184 12.9109 34.4864C10.7923 35.7968 11.1939 39.1331 13.5792 40.0376C14.493 40.3843 60.1101 40.3843 61.0239 40.0376C62.8653 39.3394 63.3442 37.9984 62.9616 34.6109C61.6321 22.8347 53.4304 13.7224 42.0606 11.3895C40.2738 11.0226 35.8998 10.7325 34.864 10.9121ZM57.0344 44.3568C55.9762 44.7241 55.9298 44.7784 54.2943 47.5793C51.5442 52.289 46.9442 55.6323 41.4485 56.9157C39.3324 57.4099 35.017 57.4115 32.9248 56.9192C29.6153 56.1402 26.0285 54.2471 23.5661 51.9797C22.3011 50.815 20.3938 48.2475 19.5485 46.5716C18.7982 45.084 18.0437 44.4715 16.7467 44.2975C15.0125 44.0647 13.274 45.6441 13.274 47.4524C13.274 47.8416 13.6809 48.9468 14.1782 49.9087C16.4036 54.2127 19.8457 57.7614 24.303 60.3471C36.9977 67.7113 53.8822 62.7112 60.5278 49.6199C61.2295 48.2373 61.3642 47.7579 61.2627 47.0017C60.9758 44.8607 59.051 43.6567 57.0344 44.3568Z" fill="white"/>
<path d="M93.1424 54.6968C92.2365 54.6968 91.5409 54.438 91.0556 53.9204C90.5703 53.4027 90.3276 52.6909 90.3276 51.785V22.6186C90.3276 21.6804 90.5865 20.9686 91.1041 20.4833C91.6218 19.9657 92.3335 19.7068 93.2394 19.7068C94.0482 19.7068 94.6791 19.8686 95.1321 20.1921C95.6174 20.4833 96.0541 21.001 96.4424 21.7451L108.429 43.9232H106.876L118.863 21.7451C119.251 21.001 119.672 20.4833 120.125 20.1921C120.578 19.8686 121.209 19.7068 122.018 19.7068C122.923 19.7068 123.619 19.9657 124.104 20.4833C124.59 20.9686 124.832 21.6804 124.832 22.6186V51.785C124.832 52.6909 124.59 53.4027 124.104 53.9204C123.651 54.438 122.956 54.6968 122.018 54.6968C121.112 54.6968 120.416 54.438 119.931 53.9204C119.446 53.4027 119.203 52.6909 119.203 51.785V29.3157H120.271L110.079 47.9027C109.756 48.4527 109.416 48.8571 109.06 49.1159C108.704 49.3747 108.219 49.5041 107.604 49.5041C106.99 49.5041 106.488 49.3747 106.1 49.1159C105.712 48.8247 105.372 48.4203 105.081 47.9027L94.7924 29.2672H95.9571V51.785C95.9571 52.6909 95.7144 53.4027 95.2291 53.9204C94.7762 54.438 94.0806 54.6968 93.1424 54.6968ZM137.798 63.4322C137.086 63.4322 136.504 63.2381 136.051 62.8498C135.598 62.494 135.323 62.0087 135.226 61.3939C135.161 60.7792 135.274 60.1322 135.565 59.4528L138.865 52.1248V54.6483L130.033 34.2173C129.742 33.5055 129.645 32.8422 129.742 32.2275C129.839 31.6128 130.13 31.1275 130.615 30.7716C131.133 30.3834 131.829 30.1893 132.702 30.1893C133.446 30.1893 134.045 30.3672 134.498 30.7231C134.951 31.0466 135.355 31.6775 135.711 32.6158L142.262 48.9703H140.807L147.504 32.5672C147.86 31.6614 148.28 31.0466 148.765 30.7231C149.251 30.3672 149.898 30.1893 150.707 30.1893C151.418 30.1893 151.985 30.3834 152.405 30.7716C152.826 31.1275 153.085 31.6128 153.182 32.2275C153.279 32.8099 153.166 33.457 152.842 34.1687L141.049 61.1028C140.629 62.0087 140.176 62.6234 139.69 62.9469C139.205 63.2704 138.574 63.4322 137.798 63.4322ZM161.207 54.3086C160.139 54.3086 159.314 54.0336 158.732 53.4836C158.182 52.9012 157.907 52.0762 157.907 51.0086V23.3951C157.907 22.3275 158.182 21.5186 158.732 20.9686C159.314 20.3863 160.139 20.0951 161.207 20.0951H178.532C179.341 20.0951 179.956 20.3054 180.376 20.726C180.829 21.1466 181.056 21.7451 181.056 22.5216C181.056 23.3304 180.829 23.9613 180.376 24.4142C179.956 24.8348 179.341 25.0451 178.532 25.0451H163.876V34.4599H177.464C178.306 34.4599 178.936 34.6702 179.357 35.0908C179.778 35.5114 179.988 36.1261 179.988 36.9349C179.988 37.7438 179.778 38.3585 179.357 38.7791C178.936 39.1996 178.306 39.4099 177.464 39.4099H163.876V49.3586H178.532C179.341 49.3586 179.956 49.5688 180.376 49.9894C180.829 50.41 181.056 51.0247 181.056 51.8336C181.056 52.6424 180.829 53.2571 180.376 53.6777C179.956 54.0983 179.341 54.3086 178.532 54.3086H161.207ZM193.858 54.7939C192.143 54.7939 190.606 54.4704 189.247 53.8233C187.921 53.1439 186.869 52.238 186.093 51.1056C185.349 49.9733 184.977 48.6953 184.977 47.2718C184.977 45.5247 185.43 44.1497 186.336 43.1467C187.241 42.1114 188.713 41.3673 190.752 40.9144C192.79 40.4614 195.524 40.2349 198.953 40.2349H201.38V43.7291H199.002C196.996 43.7291 195.394 43.8262 194.197 44.0203C193 44.2144 192.143 44.5541 191.625 45.0394C191.14 45.4923 190.897 46.1394 190.897 46.9806C190.897 48.0482 191.269 48.9218 192.013 49.6012C192.758 50.2806 193.793 50.6203 195.119 50.6203C196.187 50.6203 197.125 50.3777 197.934 49.8924C198.775 49.3747 199.439 48.6791 199.924 47.8056C200.409 46.9321 200.652 45.9291 200.652 44.7968V39.2158C200.652 37.5982 200.296 36.4334 199.584 35.7217C198.872 35.0099 197.675 34.654 195.993 34.654C195.055 34.654 194.036 34.7673 192.936 34.9937C191.868 35.2202 190.736 35.6084 189.538 36.1584C188.924 36.4496 188.374 36.5305 187.888 36.4011C187.436 36.2717 187.08 36.0129 186.821 35.6246C186.562 35.204 186.433 34.7511 186.433 34.2658C186.433 33.7805 186.562 33.3114 186.821 32.8584C187.08 32.3731 187.516 32.0172 188.131 31.7908C189.619 31.1761 191.043 30.7393 192.402 30.4805C193.793 30.2216 195.055 30.0922 196.187 30.0922C198.516 30.0922 200.425 30.4481 201.914 31.1599C203.434 31.8716 204.567 32.9555 205.311 34.4114C206.055 35.8349 206.427 37.679 206.427 39.9438V51.5909C206.427 52.5939 206.184 53.3704 205.699 53.9204C205.214 54.438 204.518 54.6968 203.612 54.6968C202.706 54.6968 201.994 54.438 201.477 53.9204C200.992 53.3704 200.749 52.5939 200.749 51.5909V49.2615H201.137C200.911 50.3939 200.458 51.3806 199.778 52.2218C199.131 53.0306 198.306 53.6615 197.303 54.1145C196.3 54.5674 195.152 54.7939 193.858 54.7939ZM223.455 54.7939C221.352 54.7939 219.589 54.438 218.165 53.7262C216.774 53.0145 215.739 51.9792 215.059 50.6203C214.38 49.2291 214.04 47.5144 214.04 45.4762V35.1393H211.516C210.74 35.1393 210.141 34.9452 209.721 34.557C209.3 34.1364 209.09 33.5702 209.09 32.8584C209.09 32.1143 209.3 31.5481 209.721 31.1599C210.141 30.7716 210.74 30.5775 211.516 30.5775H214.04V26.1613C214.04 25.1584 214.299 24.3981 214.816 23.8804C215.366 23.3628 216.127 23.1039 217.097 23.1039C218.068 23.1039 218.812 23.3628 219.33 23.8804C219.847 24.3981 220.106 25.1584 220.106 26.1613V30.5775H225.25C226.027 30.5775 226.625 30.7716 227.046 31.1599C227.467 31.5481 227.677 32.1143 227.677 32.8584C227.677 33.5702 227.467 34.1364 227.046 34.557C226.625 34.9452 226.027 35.1393 225.25 35.1393H220.106V45.1365C220.106 46.6894 220.446 47.8541 221.125 48.6306C221.805 49.4071 222.905 49.7953 224.425 49.7953C224.975 49.7953 225.461 49.7468 225.881 49.6497C226.302 49.5527 226.674 49.488 226.997 49.4556C227.386 49.4233 227.709 49.5527 227.968 49.8439C228.227 50.1027 228.356 50.6527 228.356 51.4939C228.356 52.1409 228.243 52.7233 228.017 53.2409C227.822 53.7262 227.45 54.0659 226.9 54.2601C226.48 54.3895 225.93 54.5027 225.25 54.5998C224.571 54.7292 223.972 54.7939 223.455 54.7939ZM239.896 54.7939C238.505 54.7939 237.033 54.6483 235.48 54.3571C233.927 54.0659 232.536 53.5645 231.306 52.8527C230.789 52.5292 230.417 52.1571 230.19 51.7365C229.996 51.2836 229.915 50.8468 229.948 50.4262C230.012 49.9733 230.174 49.585 230.433 49.2615C230.724 48.938 231.08 48.7277 231.5 48.6306C231.953 48.5335 232.439 48.6144 232.956 48.8733C234.25 49.488 235.464 49.9247 236.596 50.1836C237.728 50.41 238.845 50.5233 239.945 50.5233C241.498 50.5233 242.646 50.2644 243.39 49.7468C244.167 49.1968 244.555 48.485 244.555 47.6115C244.555 46.8674 244.296 46.3012 243.778 45.9129C243.293 45.4923 242.549 45.185 241.546 44.9909L236.693 44.0688C234.687 43.6806 233.15 42.9526 232.083 41.885C231.048 40.785 230.53 39.3776 230.53 37.6629C230.53 36.1099 230.95 34.7673 231.792 33.6349C232.665 32.5025 233.862 31.629 235.383 31.0143C236.903 30.3996 238.651 30.0922 240.624 30.0922C242.048 30.0922 243.374 30.254 244.604 30.5775C245.865 30.8687 247.079 31.3378 248.243 31.9849C248.729 32.2437 249.052 32.5834 249.214 33.004C249.408 33.4246 249.456 33.8614 249.359 34.3143C249.262 34.7349 249.068 35.1231 248.777 35.479C248.486 35.8026 248.114 36.0129 247.661 36.1099C247.24 36.1746 246.755 36.0776 246.205 35.8187C245.202 35.3011 244.231 34.929 243.293 34.7026C242.387 34.4761 241.514 34.3628 240.673 34.3628C239.087 34.3628 237.906 34.6378 237.13 35.1878C236.386 35.7379 236.014 36.4658 236.014 37.3717C236.014 38.0511 236.24 38.6173 236.693 39.0702C237.146 39.5232 237.842 39.8305 238.78 39.9923L243.633 40.9144C245.736 41.3026 247.321 42.0144 248.389 43.0497C249.489 44.085 250.039 45.4762 250.039 47.2232C250.039 49.585 249.117 51.4453 247.273 52.8042C245.429 54.1307 242.97 54.7939 239.896 54.7939Z" fill="#00CF63"/>
</svg>
