<svg width="16" height="17" viewBox="0 0 16 17" fill="none" xmlns="http://www.w3.org/2000/svg">
<rect y="0.944336" width="16" height="16" fill="#FFF0EE"/>
<rect width="11.6364" height="11.6364" transform="translate(2.18188 3.12695)" fill="#FFF0EE"/>
<path d="M12.8182 3.12695H3.18188C2.6296 3.12695 2.18188 3.57467 2.18188 4.12695V13.7633C2.18188 14.3156 2.6296 14.7633 3.18189 14.7633H12.8182C13.3705 14.7633 13.8182 14.3156 13.8182 13.7633V4.12695C13.8182 3.57467 13.3705 3.12695 12.8182 3.12695Z" stroke="#FF331C"/>
<path d="M8.00003 12.4952C9.96068 12.4952 11.5501 10.9057 11.5501 8.9451C11.5501 6.98444 9.96068 5.39502 8.00003 5.39502C6.03937 5.39502 4.44995 6.98444 4.44995 8.9451C4.44995 10.9057 6.03937 12.4952 8.00003 12.4952Z" fill="#FF331C"/>
</svg>
