
<svg width="12" height="13" viewBox="0 0 12 13" fill="none" xmlns="http://www.w3.org/2000/svg">
<rect x="1.05347" y="1.09424" width="10.8118" height="10.8118" rx="5.40589" fill="white"/>
<rect x="1.05347" y="1.09424" width="10.8118" height="10.8118" rx="5.40589" stroke="#F3F6FD" stroke-width="0.269528"/>
<ellipse cx="3.58984" cy="6.50093" rx="1.14776" ry="0.908643" fill="#00CF63"/>
<path fill-rule="evenodd" clip-rule="evenodd" d="M6.07833 2.38644C6.02859 2.39506 5.86577 2.42005 5.71653 2.44199C4.5442 2.61428 3.38469 3.4354 2.84216 4.47752C2.69972 4.75112 2.68854 4.83158 2.76679 5.01907C2.83847 5.1907 3.02024 5.29864 3.23765 5.29864C3.39011 5.29864 3.4243 5.28293 3.54091 5.15931C3.61317 5.08269 3.72931 4.92514 3.79896 4.8092C4.17136 4.18932 4.86057 3.68949 5.62608 3.48407C6.01491 3.37971 6.66768 3.37037 7.06407 3.46343C7.99493 3.68199 8.74459 4.26841 9.15568 5.09949C9.36795 5.52872 9.47656 5.90693 9.40124 5.95473C9.37453 5.97167 7.873 5.98576 6.06451 5.98609C2.81857 5.98663 2.77483 5.98757 2.65695 6.0605C2.32677 6.26472 2.38936 6.78469 2.76111 6.92565C2.90352 6.97968 10.0129 6.97968 10.1553 6.92565C10.4423 6.81684 10.517 6.60784 10.4573 6.0799C10.2501 4.24458 8.97191 2.82444 7.19993 2.46086C6.92145 2.40368 6.23977 2.35845 6.07833 2.38644ZM9.53358 7.59879C9.36867 7.65604 9.36144 7.66451 9.10654 8.10102C8.67795 8.83503 7.96103 9.35608 7.10453 9.55611C6.77474 9.63312 6.10218 9.63338 5.77612 9.55665C5.26033 9.43524 4.70134 9.1402 4.31757 8.78683C4.12042 8.60531 3.82316 8.20516 3.69143 7.94398C3.57449 7.71213 3.4569 7.61668 3.25476 7.58956C2.98449 7.55328 2.71354 7.79943 2.71354 8.08125C2.71354 8.1419 2.77696 8.31415 2.85446 8.46406C3.20129 9.13484 3.73774 9.68791 4.4324 10.0909C6.41087 11.2386 9.04232 10.4593 10.078 8.41905C10.1874 8.20357 10.2084 8.12887 10.1926 8.011C10.1479 7.67733 9.84788 7.48969 9.53358 7.59879Z" fill="#00CF63"/>
</svg>
