
<svg width="18" height="19" viewBox="0 0 18 19" fill="none" xmlns="http://www.w3.org/2000/svg">
<g id="qr-code-01">
<path id="Icon" d="M5.03125 9.5H8.625V13.0938M2.16344 9.5H2.15625M5.75719 13.0938H5.75M8.63219 15.9688H8.625M15.1009 9.5H15.0938M2.15625 13.0938H3.23438M11.1406 9.5H12.5781M2.15625 15.9688H5.75M8.625 2.3125V6.625M12.65 15.9688H13.9437C14.3463 15.9688 14.5476 15.9687 14.7013 15.8904C14.8365 15.8215 14.9465 15.7115 15.0154 15.5763C15.0937 15.4226 15.0938 15.2213 15.0938 14.8187V13.525C15.0938 13.1225 15.0937 12.9212 15.0154 12.7674C14.9465 12.6322 14.8365 12.5222 14.7013 12.4533C14.5476 12.375 14.3463 12.375 13.9437 12.375H12.65C12.2475 12.375 12.0462 12.375 11.8924 12.4533C11.7572 12.5222 11.6472 12.6322 11.5783 12.7674C11.5 12.9212 11.5 13.1225 11.5 13.525V14.8187C11.5 15.2213 11.5 15.4226 11.5783 15.5763C11.6472 15.7115 11.7572 15.8215 11.8924 15.8904C12.0462 15.9687 12.2475 15.9688 12.65 15.9688ZM12.65 6.625H13.9437C14.3463 6.625 14.5476 6.625 14.7013 6.54666C14.8365 6.47775 14.9465 6.3678 15.0154 6.23256C15.0937 6.07881 15.0938 5.87754 15.0938 5.475V4.18125C15.0938 3.77871 15.0937 3.57744 15.0154 3.42369C14.9465 3.28845 14.8365 3.1785 14.7013 3.10959C14.5476 3.03125 14.3463 3.03125 13.9437 3.03125H12.65C12.2475 3.03125 12.0462 3.03125 11.8924 3.10959C11.7572 3.1785 11.6472 3.28845 11.5783 3.42369C11.5 3.57744 11.5 3.77871 11.5 4.18125V5.475C11.5 5.87754 11.5 6.07881 11.5783 6.23256C11.6472 6.3678 11.7572 6.47775 11.8924 6.54666C12.0462 6.625 12.2475 6.625 12.65 6.625ZM3.30625 6.625H4.6C5.00254 6.625 5.20381 6.625 5.35756 6.54666C5.4928 6.47775 5.60275 6.3678 5.67166 6.23256C5.75 6.07881 5.75 5.87754 5.75 5.475V4.18125C5.75 3.77871 5.75 3.57744 5.67166 3.42369C5.60275 3.28845 5.4928 3.1785 5.35756 3.10959C5.20381 3.03125 5.00254 3.03125 4.6 3.03125H3.30625C2.90371 3.03125 2.70244 3.03125 2.54869 3.10959C2.41345 3.1785 2.3035 3.28845 2.23459 3.42369C2.15625 3.57744 2.15625 3.77871 2.15625 4.18125V5.475C2.15625 5.87754 2.15625 6.07881 2.23459 6.23256C2.3035 6.3678 2.41345 6.47775 2.54869 6.54666C2.70244 6.625 2.90371 6.625 3.30625 6.625Z" stroke="#004A00" stroke-width="1.4375" stroke-linecap="round" stroke-linejoin="round"/>
</g>
</svg>
