<svg width="73" height="23" viewBox="0 0 73 23" fill="none" xmlns="http://www.w3.org/2000/svg">
<rect width="73" height="23" rx="3" fill="#FFA527"/>
<path d="M12.5 16.5H7.5C7.295 16.5 7.125 16.33 7.125 16.125C7.125 15.92 7.295 15.75 7.5 15.75H12.5C12.705 15.75 12.875 15.92 12.875 16.125C12.875 16.33 12.705 16.5 12.5 16.5Z" fill="white"/>
<path d="M14.175 8.26002L12.175 9.69002C11.91 9.88002 11.53 9.76502 11.415 9.46002L10.47 6.94002C10.31 6.50502 9.69499 6.50502 9.53499 6.94002L8.58499 9.45502C8.46999 9.76502 8.09499 9.88002 7.82999 9.68502L5.82999 8.25502C5.42999 7.97502 4.89999 8.37002 5.06499 8.83502L7.14499 14.66C7.21499 14.86 7.40499 14.99 7.61499 14.99H12.38C12.59 14.99 12.78 14.855 12.85 14.66L14.93 8.83502C15.1 8.37002 14.57 7.97502 14.175 8.26002ZM11.25 12.875H8.74999C8.54499 12.875 8.37499 12.705 8.37499 12.5C8.37499 12.295 8.54499 12.125 8.74999 12.125H11.25C11.455 12.125 11.625 12.295 11.625 12.5C11.625 12.705 11.455 12.875 11.25 12.875Z" fill="white"/>
<path d="M18.9588 16V7.27273H22.0696C22.7486 7.27273 23.3111 7.39631 23.7571 7.64347C24.2031 7.89062 24.5369 8.22869 24.7585 8.65767C24.9801 9.08381 25.0909 9.56392 25.0909 10.098C25.0909 10.6349 24.9787 11.1179 24.7543 11.5469C24.5327 11.973 24.1974 12.3111 23.7486 12.5611C23.3026 12.8082 22.7415 12.9318 22.0653 12.9318H19.9261V11.8153H21.946C22.375 11.8153 22.723 11.7415 22.9901 11.5938C23.2571 11.4432 23.4531 11.2386 23.5781 10.9801C23.7031 10.7216 23.7656 10.4276 23.7656 10.098C23.7656 9.76847 23.7031 9.47585 23.5781 9.22017C23.4531 8.96449 23.2557 8.7642 22.9858 8.61932C22.7188 8.47443 22.3665 8.40199 21.929 8.40199H20.2756V16H18.9588ZM26.5323 16V9.45455H27.7638V10.4943H27.832C27.9513 10.142 28.1616 9.86506 28.4627 9.66335C28.7667 9.45881 29.1104 9.35653 29.494 9.35653C29.5735 9.35653 29.6673 9.35937 29.7752 9.36506C29.886 9.37074 29.9727 9.37784 30.0352 9.38636V10.6051C29.984 10.5909 29.8931 10.5753 29.7624 10.5582C29.6317 10.5384 29.5011 10.5284 29.3704 10.5284C29.0692 10.5284 28.8008 10.5923 28.565 10.7202C28.332 10.8452 28.1474 11.0199 28.011 11.2443C27.8746 11.4659 27.8065 11.7187 27.8065 12.0028V16H26.5323ZM33.7244 16.1321C33.0795 16.1321 32.5241 15.9943 32.0582 15.7188C31.5952 15.4403 31.2372 15.0497 30.9844 14.5469C30.7344 14.0412 30.6094 13.4489 30.6094 12.7699C30.6094 12.0994 30.7344 11.5085 30.9844 10.9972C31.2372 10.4858 31.5895 10.0866 32.0412 9.79972C32.4957 9.51278 33.027 9.36932 33.6349 9.36932C34.0043 9.36932 34.3622 9.4304 34.7088 9.55256C35.0554 9.67472 35.3665 9.86648 35.642 10.1278C35.9176 10.3892 36.1349 10.7287 36.294 11.1463C36.4531 11.5611 36.5327 12.0653 36.5327 12.6591V13.1108H31.3295V12.1562H35.2841C35.2841 11.821 35.2159 11.5241 35.0795 11.2656C34.9432 11.0043 34.7514 10.7983 34.5043 10.6477C34.2599 10.4972 33.973 10.4219 33.6435 10.4219C33.2855 10.4219 32.973 10.5099 32.706 10.6861C32.4418 10.8594 32.2372 11.0866 32.0923 11.3679C31.9503 11.6463 31.8793 11.9489 31.8793 12.2756V13.0213C31.8793 13.4588 31.956 13.831 32.1094 14.1378C32.2656 14.4446 32.483 14.679 32.7614 14.8409C33.0398 15 33.3651 15.0795 33.7372 15.0795C33.9787 15.0795 34.1989 15.0455 34.3977 14.9773C34.5966 14.9062 34.7685 14.8011 34.9134 14.6619C35.0582 14.5227 35.169 14.3509 35.2457 14.1463L36.4517 14.3636C36.3551 14.7187 36.1818 15.0298 35.9318 15.2969C35.6847 15.5611 35.3736 15.767 34.9986 15.9148C34.6264 16.0597 34.2017 16.1321 33.7244 16.1321ZM37.9464 16V9.45455H39.1694V10.5199H39.2504C39.3867 10.1591 39.6097 9.87784 39.9194 9.67614C40.229 9.47159 40.5998 9.36932 41.0316 9.36932C41.4691 9.36932 41.8356 9.47159 42.131 9.67614C42.4293 9.88068 42.6495 10.1619 42.7915 10.5199H42.8597C43.016 10.1705 43.2646 9.89205 43.6055 9.68466C43.9464 9.47443 44.3526 9.36932 44.8242 9.36932C45.418 9.36932 45.9023 9.5554 46.2773 9.92756C46.6552 10.2997 46.8441 10.8608 46.8441 11.6108V16H45.57V11.7301C45.57 11.2869 45.4492 10.9659 45.2077 10.767C44.9663 10.5682 44.6779 10.4688 44.3427 10.4688C43.9279 10.4688 43.6055 10.5966 43.3754 10.8523C43.1452 11.1051 43.0302 11.4304 43.0302 11.8281V16H41.7603V11.6491C41.7603 11.294 41.6495 11.0085 41.4279 10.7926C41.2063 10.5767 40.918 10.4688 40.5629 10.4688C40.3214 10.4688 40.0984 10.5327 39.8938 10.6605C39.6921 10.7855 39.5288 10.9602 39.4038 11.1847C39.2816 11.4091 39.2205 11.669 39.2205 11.9645V16H37.9464ZM48.5518 16V9.45455H49.826V16H48.5518ZM49.1953 8.4446C48.9737 8.4446 48.7834 8.37074 48.6243 8.22301C48.468 8.07244 48.3899 7.89347 48.3899 7.68608C48.3899 7.47585 48.468 7.29687 48.6243 7.14915C48.7834 6.99858 48.9737 6.9233 49.1953 6.9233C49.4169 6.9233 49.6058 6.99858 49.7621 7.14915C49.9212 7.29687 50.0007 7.47585 50.0007 7.68608C50.0007 7.89347 49.9212 8.07244 49.7621 8.22301C49.6058 8.37074 49.4169 8.4446 49.1953 8.4446ZM55.6864 13.2855V9.45455H56.9648V16H55.712V14.8665H55.6438C55.4933 15.2159 55.2518 15.5071 54.9194 15.7401C54.5898 15.9702 54.1793 16.0852 53.6879 16.0852C53.2674 16.0852 52.8952 15.9929 52.5714 15.8082C52.2504 15.6207 51.9975 15.3438 51.8129 14.9773C51.631 14.6108 51.5401 14.1577 51.5401 13.6179V9.45455H52.8143V13.4645C52.8143 13.9105 52.9379 14.2656 53.185 14.5298C53.4322 14.794 53.7532 14.9261 54.1481 14.9261C54.3867 14.9261 54.6239 14.8665 54.8597 14.7472C55.0984 14.6278 55.2958 14.4474 55.4521 14.206C55.6112 13.9645 55.6893 13.6577 55.6864 13.2855ZM58.6768 16V9.45455H59.8999V10.5199H59.9808C60.1172 10.1591 60.3402 9.87784 60.6499 9.67614C60.9595 9.47159 61.3303 9.36932 61.7621 9.36932C62.1996 9.36932 62.5661 9.47159 62.8615 9.67614C63.1598 9.88068 63.38 10.1619 63.522 10.5199H63.5902C63.7464 10.1705 63.995 9.89205 64.3359 9.68466C64.6768 9.47443 65.0831 9.36932 65.5547 9.36932C66.1484 9.36932 66.6328 9.5554 67.0078 9.92756C67.3857 10.2997 67.5746 10.8608 67.5746 11.6108V16H66.3004V11.7301C66.3004 11.2869 66.1797 10.9659 65.9382 10.767C65.6967 10.5682 65.4084 10.4688 65.0732 10.4688C64.6584 10.4688 64.3359 10.5966 64.1058 10.8523C63.8757 11.1051 63.7607 11.4304 63.7607 11.8281V16H62.4908V11.6491C62.4908 11.294 62.38 11.0085 62.1584 10.7926C61.9368 10.5767 61.6484 10.4688 61.2933 10.4688C61.0518 10.4688 60.8288 10.5327 60.6243 10.6605C60.4226 10.7855 60.2592 10.9602 60.1342 11.1847C60.0121 11.4091 59.951 11.669 59.951 11.9645V16H58.6768Z" fill="white"/>
</svg>
