<svg width="46" height="46" viewBox="0 0 46 46" fill="none" xmlns="http://www.w3.org/2000/svg">
<circle cx="23" cy="23" r="21.9048" stroke="#EDF5F9" stroke-width="2.19048"/>
<path d="M13 20V17.5C13 15.01 15.01 13 17.5 13H20" stroke="#28385F" stroke-width="1.5" stroke-linecap="round" stroke-linejoin="round"/>
<path d="M26 13H28.5C30.99 13 33 15.01 33 17.5V20" stroke="#28385F" stroke-width="1.5" stroke-linecap="round" stroke-linejoin="round"/>
<path d="M33 27V28.5C33 30.99 30.99 33 28.5 33H27" stroke="#28385F" stroke-width="1.5" stroke-linecap="round" stroke-linejoin="round"/>
<path d="M20 33H17.5C15.01 33 13 30.99 13 28.5V26" stroke="#28385F" stroke-width="1.5" stroke-linecap="round" stroke-linejoin="round"/>
<path d="M28 20.5V25.5C28 27.5 27 28.5 25 28.5H21C19 28.5 18 27.5 18 25.5V20.5C18 18.5 19 17.5 21 17.5H25C27 17.5 28 18.5 28 20.5Z" stroke="#28385F" stroke-width="1.5" stroke-linecap="round" stroke-linejoin="round"/>
<path d="M30 23H16" stroke="#28385F" stroke-width="1.5" stroke-linecap="round" stroke-linejoin="round"/>
</svg>
