
<svg width="40" height="40" viewBox="0 0 40 40" fill="none" xmlns="http://www.w3.org/2000/svg">
<circle cx="20" cy="20" r="19.5" stroke="#E7ECF0"/>
<path d="M25.5253 22.3538L25.5102 22.3464C25.0405 22.1166 24.508 22.0493 23.9959 22.1548L23.9959 22.1548C23.4838 22.2603 23.0212 22.5326 22.6806 22.9293L22.4992 23.1405L22.25 23.0161C21.2862 22.5344 20.3186 22.0473 19.3508 21.56C19.0908 21.4291 18.8308 21.2982 18.5708 21.1674L18.3217 21.0421L18.3829 20.77C18.459 20.4315 18.459 20.0803 18.3829 19.7417L18.3217 19.4696L18.5709 19.3443C18.893 19.1823 19.2152 19.0201 19.5374 18.858C20.4432 18.4022 21.3484 17.9466 22.2502 17.4957L22.4994 17.3711L22.6809 17.5825C23.0214 17.9791 23.4839 18.2515 23.996 18.3571C24.5078 18.4626 25.0402 18.3954 25.5097 18.166C26.6541 17.6023 27.0903 16.2552 26.4796 15.1042L26.4796 15.1042C25.8552 13.9273 24.4569 13.4316 23.3581 13.9815L23.3576 13.9817C22.4139 14.4522 21.9342 15.5383 22.1699 16.569L22.2324 16.8422L21.9818 16.9679C21.1457 17.3871 20.3065 17.811 19.4649 18.2361C19.0805 18.4303 18.6956 18.6247 18.3103 18.819L18.0796 18.9353L17.897 18.7526L17.8969 18.7525L17.8871 18.7428L17.8781 18.7322C17.678 18.4985 17.4329 18.3075 17.1572 18.1706L17.1566 18.1703C16.0157 17.601 14.6006 18.0838 14.0076 19.2293L25.5253 22.3538ZM25.5253 22.3538C26.6584 22.9219 27.0872 24.26 26.4788 25.4077C25.8543 26.5859 24.4566 27.0803 23.3574 26.5303L23.3571 26.5302C22.4131 26.059 21.9335 24.9734 22.1692 23.9428L22.2317 23.6695L21.9811 23.5439C21.0449 23.0746 20.1045 22.5996 19.1615 22.1232C18.8775 21.9798 18.5934 21.8363 18.309 21.6927L18.0588 21.5664L17.8766 21.7795C17.1991 22.5719 16.0486 22.8221 15.061 22.3215C13.8908 21.7263 13.4249 20.355 14.0075 19.2294L25.5253 22.3538Z" fill="black" stroke="#1A264E" stroke-width="0.714286"/>
</svg>
